<svg xmlns="http://www.w3.org/2000/svg" xmlns:xlink="http://www.w3.org/1999/xlink" width="249" zoomAndPan="magnify" viewBox="0 0 186.75 53.25" height="71" preserveAspectRatio="xMidYMid meet" version="1.0"><defs><g/><clipPath id="8d62a04800"><rect x="0" width="94" y="0" height="52"/></clipPath><clipPath id="f0eaa24dfd"><rect x="0" width="81" y="0" height="52"/></clipPath></defs><g transform="matrix(1, 0, 0, 1, 6, -0.00000000000000563)"><g clip-path="url(#8d62a04800)"><g fill="#181818" fill-opacity="1"><g transform="translate(0.718523, 39.037476)"><g><path d="M 8.625 0.296875 C 6.050781 0.296875 4.140625 -0.429688 2.890625 -1.890625 C 1.640625 -3.347656 1.015625 -5.507812 1.015625 -8.375 L 1.015625 -31.28125 L 7.109375 -31.28125 L 7.109375 -8.625 C 7.109375 -7.632812 7.203125 -6.859375 7.390625 -6.296875 C 7.585938 -5.742188 8 -5.46875 8.625 -5.46875 C 9.257812 -5.46875 9.671875 -5.738281 9.859375 -6.28125 C 10.054688 -6.832031 10.15625 -7.613281 10.15625 -8.625 L 10.15625 -31.28125 L 16.25 -31.28125 L 16.25 -8.375 C 16.25 -5.507812 15.625 -3.347656 14.375 -1.890625 C 13.125 -0.429688 11.207031 0.296875 8.625 0.296875 Z M 8.625 0.296875 "/></g></g></g><g fill="#181818" fill-opacity="1"><g transform="translate(18.895344, 39.037476)"><g><path d="M 1.390625 -31.28125 L 11 -31.28125 C 12.53125 -31.28125 13.710938 -30.929688 14.546875 -30.234375 C 15.390625 -29.546875 15.957031 -28.578125 16.25 -27.328125 C 16.539062 -26.078125 16.6875 -24.484375 16.6875 -22.546875 C 16.6875 -20.773438 16.453125 -19.390625 15.984375 -18.390625 C 15.523438 -17.398438 14.722656 -16.707031 13.578125 -16.3125 C 14.523438 -16.125 15.210938 -15.648438 15.640625 -14.890625 C 16.066406 -14.140625 16.28125 -13.125 16.28125 -11.84375 L 16.203125 0 L 10.09375 0 L 10.09375 -12.234375 C 10.09375 -13.109375 9.921875 -13.664062 9.578125 -13.90625 C 9.234375 -14.15625 8.613281 -14.28125 7.71875 -14.28125 L 7.71875 0 L 1.390625 0 Z M 9.25 -19.703125 C 10.125 -19.703125 10.5625 -20.648438 10.5625 -22.546875 C 10.5625 -23.367188 10.523438 -23.984375 10.453125 -24.390625 C 10.378906 -24.804688 10.242188 -25.09375 10.046875 -25.25 C 9.859375 -25.414062 9.582031 -25.5 9.21875 -25.5 L 7.765625 -25.5 L 7.765625 -19.703125 Z M 9.25 -19.703125 "/></g></g></g><g fill="#181818" fill-opacity="1"><g transform="translate(37.181436, 39.037476)"><g><path d="M 1.390625 -31.28125 L 9.875 -31.28125 C 12.15625 -31.28125 13.8125 -30.722656 14.84375 -29.609375 C 15.875 -28.492188 16.390625 -26.671875 16.390625 -24.140625 L 16.390625 -22.765625 C 16.390625 -19.773438 15.320312 -17.988281 13.1875 -17.40625 C 14.5 -17.070312 15.421875 -16.285156 15.953125 -15.046875 C 16.484375 -13.804688 16.75 -12.164062 16.75 -10.125 C 16.75 -6.800781 16.25 -4.28125 15.25 -2.5625 C 14.257812 -0.851562 12.46875 0 9.875 0 L 1.390625 0 Z M 8.78125 -19.515625 C 9.3125 -19.515625 9.671875 -19.710938 9.859375 -20.109375 C 10.054688 -20.515625 10.15625 -21.082031 10.15625 -21.8125 L 10.15625 -24.953125 C 10.15625 -25.972656 9.707031 -26.484375 8.8125 -26.484375 L 7.5 -26.484375 L 7.5 -19.515625 Z M 8.125 -5.5 C 9.75 -5.5 10.5625 -6.273438 10.5625 -7.828125 L 10.5625 -11.734375 C 10.5625 -12.671875 10.421875 -13.382812 10.140625 -13.875 C 9.859375 -14.363281 9.367188 -14.609375 8.671875 -14.609375 L 7.5 -14.609375 L 7.5 -5.53125 Z M 8.125 -5.5 "/></g></g></g><g fill="#181818" fill-opacity="1"><g transform="translate(55.540383, 39.037476)"><g><path d="M 0.546875 0 L 3.5625 -31.28125 L 14.171875 -31.28125 L 17.15625 0 L 11.21875 0 L 10.78125 -5.0625 L 7 -5.0625 L 6.625 0 Z M 7.46875 -10.046875 L 10.3125 -10.046875 L 8.921875 -25.96875 L 8.625 -25.96875 Z M 7.46875 -10.046875 "/></g></g></g><g fill="#181818" fill-opacity="1"><g transform="translate(74.117892, 39.037476)"><g><path d="M 1.390625 0 L 1.390625 -31.28125 L 7.828125 -31.28125 L 10.703125 -16.3125 L 10.703125 -31.28125 L 16.75 -31.28125 L 16.75 0 L 10.640625 0 L 7.5 -15.65625 L 7.5 0 Z M 1.390625 0 "/></g></g></g></g></g><g transform="matrix(1, 0, 0, 1, 98, -0.00000000000000563)"><g clip-path="url(#f0eaa24dfd)"><g fill="#181818" fill-opacity="1"><g transform="translate(0.275532, 39.123713)"><g><path d="M 1.144531 0 L 1.144531 -31.144531 L 7.785156 -31.144531 L 7.785156 -5.253906 L 7.558594 -5.253906 L 7.558594 -5.480469 L 14.15625 -5.480469 L 14.15625 0.226562 L 1.144531 0.226562 Z M 1.59375 0 L 1.367188 0 L 1.367188 -0.226562 L 13.929688 -0.226562 L 13.929688 0 L 13.707031 0 L 13.707031 -5.253906 L 13.929688 -5.253906 L 13.929688 -5.03125 L 7.335938 -5.03125 L 7.335938 -30.921875 L 7.558594 -30.921875 L 7.558594 -30.695312 L 1.367188 -30.695312 L 1.367188 -30.921875 L 1.59375 -30.921875 Z M 1.59375 0 "/></g></g></g><g fill="#181818" fill-opacity="1"><g transform="translate(15.465578, 39.123713)"><g><path d="M 8.746094 0.511719 C 6.183594 0.511719 4.230469 -0.273438 2.886719 -1.851562 C 1.558594 -3.417969 0.890625 -5.609375 0.890625 -8.421875 L 0.890625 -23.144531 C 0.890625 -25.871094 1.558594 -27.929688 2.898438 -29.332031 C 4.238281 -30.734375 6.1875 -31.433594 8.746094 -31.433594 C 11.308594 -31.433594 13.257812 -30.734375 14.597656 -29.332031 C 15.933594 -27.929688 16.601562 -25.871094 16.601562 -23.144531 L 16.601562 -8.421875 C 16.601562 -5.582031 15.9375 -3.386719 14.605469 -1.832031 C 13.265625 -0.269531 11.3125 0.511719 8.746094 0.511719 Z M 8.746094 0.0625 C 11.175781 0.0625 13.011719 -0.667969 14.265625 -2.125 C 15.523438 -3.597656 16.152344 -5.695312 16.152344 -8.421875 L 16.152344 -23.144531 C 16.152344 -25.75 15.527344 -27.707031 14.273438 -29.019531 C 13.019531 -30.328125 11.179688 -30.984375 8.746094 -30.984375 C 6.316406 -30.984375 4.472656 -30.328125 3.222656 -29.019531 C 1.96875 -27.707031 1.339844 -25.75 1.339844 -23.144531 L 1.339844 -8.421875 C 1.339844 -5.71875 1.972656 -3.625 3.230469 -2.144531 C 4.480469 -0.671875 6.320312 0.0625 8.746094 0.0625 Z M 8.746094 -5.625 C 9.199219 -5.625 9.5 -5.816406 9.652344 -6.203125 C 9.835938 -6.65625 9.925781 -7.300781 9.925781 -8.136719 L 9.925781 -23.253906 C 9.925781 -23.894531 9.84375 -24.410156 9.675781 -24.804688 C 9.535156 -25.132812 9.234375 -25.296875 8.78125 -25.296875 C 7.902344 -25.296875 7.460938 -24.589844 7.460938 -23.183594 L 7.460938 -8.097656 C 7.460938 -7.246094 7.5625 -6.605469 7.761719 -6.179688 C 7.9375 -5.808594 8.265625 -5.625 8.746094 -5.625 Z M 8.746094 -5.175781 C 8.078125 -5.175781 7.613281 -5.445312 7.355469 -5.988281 C 7.125 -6.472656 7.011719 -7.175781 7.011719 -8.097656 L 7.011719 -23.183594 C 7.011719 -24.007812 7.152344 -24.632812 7.433594 -25.0625 C 7.738281 -25.519531 8.1875 -25.746094 8.78125 -25.746094 C 9.433594 -25.746094 9.867188 -25.492188 10.085938 -24.980469 C 10.28125 -24.53125 10.375 -23.957031 10.375 -23.253906 L 10.375 -8.136719 C 10.375 -7.242188 10.273438 -6.542969 10.070312 -6.035156 C 9.84375 -5.460938 9.402344 -5.175781 8.746094 -5.175781 Z M 8.746094 -5.175781 "/></g></g></g><g fill="#181818" fill-opacity="1"><g transform="translate(33.859186, 39.123713)"><g><path d="M 8.746094 0.511719 C 6.183594 0.511719 4.230469 -0.273438 2.886719 -1.851562 C 1.558594 -3.417969 0.890625 -5.609375 0.890625 -8.421875 L 0.890625 -23.144531 C 0.890625 -25.871094 1.558594 -27.929688 2.898438 -29.332031 C 4.238281 -30.734375 6.1875 -31.433594 8.746094 -31.433594 C 11.308594 -31.433594 13.257812 -30.734375 14.597656 -29.332031 C 15.933594 -27.929688 16.601562 -25.871094 16.601562 -23.144531 L 16.601562 -8.421875 C 16.601562 -5.582031 15.9375 -3.386719 14.605469 -1.832031 C 13.265625 -0.269531 11.3125 0.511719 8.746094 0.511719 Z M 8.746094 0.0625 C 11.175781 0.0625 13.011719 -0.667969 14.265625 -2.125 C 15.523438 -3.597656 16.152344 -5.695312 16.152344 -8.421875 L 16.152344 -23.144531 C 16.152344 -25.75 15.527344 -27.707031 14.273438 -29.019531 C 13.019531 -30.328125 11.179688 -30.984375 8.746094 -30.984375 C 6.316406 -30.984375 4.472656 -30.328125 3.222656 -29.019531 C 1.96875 -27.707031 1.339844 -25.75 1.339844 -23.144531 L 1.339844 -8.421875 C 1.339844 -5.71875 1.972656 -3.625 3.230469 -2.144531 C 4.480469 -0.671875 6.320312 0.0625 8.746094 0.0625 Z M 8.746094 -5.625 C 9.199219 -5.625 9.5 -5.816406 9.652344 -6.203125 C 9.835938 -6.65625 9.925781 -7.300781 9.925781 -8.136719 L 9.925781 -23.253906 C 9.925781 -23.894531 9.84375 -24.410156 9.675781 -24.804688 C 9.535156 -25.132812 9.234375 -25.296875 8.78125 -25.296875 C 7.902344 -25.296875 7.460938 -24.589844 7.460938 -23.183594 L 7.460938 -8.097656 C 7.460938 -7.246094 7.5625 -6.605469 7.761719 -6.179688 C 7.9375 -5.808594 8.265625 -5.625 8.746094 -5.625 Z M 8.746094 -5.175781 C 8.078125 -5.175781 7.613281 -5.445312 7.355469 -5.988281 C 7.125 -6.472656 7.011719 -7.175781 7.011719 -8.097656 L 7.011719 -23.183594 C 7.011719 -24.007812 7.152344 -24.632812 7.433594 -25.0625 C 7.738281 -25.519531 8.1875 -25.746094 8.78125 -25.746094 C 9.433594 -25.746094 9.867188 -25.492188 10.085938 -24.980469 C 10.28125 -24.53125 10.375 -23.957031 10.375 -23.253906 L 10.375 -8.136719 C 10.375 -7.242188 10.273438 -6.542969 10.070312 -6.035156 C 9.84375 -5.460938 9.402344 -5.175781 8.746094 -5.175781 Z M 8.746094 -5.175781 "/></g></g></g><g fill="#181818" fill-opacity="1"><g transform="translate(52.252795, 39.123713)"><g><path d="M 1.144531 0 L 1.144531 -31.144531 L 10.996094 -31.144531 L 13.613281 -12.089844 L 13.390625 -12.058594 L 13.167969 -12.089844 L 15.785156 -31.144531 L 25.710938 -31.144531 L 25.710938 0.226562 L 19.609375 0.226562 L 19.609375 -22.28125 L 19.835938 -22.28125 L 20.054688 -22.246094 L 16.460938 0.226562 L 10.535156 0.226562 L 6.726562 -22.246094 L 6.949219 -22.28125 L 7.171875 -22.28125 L 7.171875 0.226562 L 1.144531 0.226562 Z M 1.59375 0 L 1.367188 0 L 1.367188 -0.226562 L 6.949219 -0.226562 L 6.949219 0 L 6.722656 0 L 6.722656 -22.28125 L 7.167969 -22.320312 L 10.949219 -0.0390625 L 10.726562 0 L 10.726562 -0.226562 L 16.269531 -0.226562 L 16.269531 0 L 16.046875 -0.0351562 L 19.613281 -22.316406 L 20.058594 -22.28125 L 20.058594 0 L 19.835938 0 L 19.835938 -0.226562 L 25.484375 -0.226562 L 25.484375 0 L 25.261719 0 L 25.261719 -30.921875 L 25.484375 -30.921875 L 25.484375 -30.695312 L 15.984375 -30.695312 L 15.984375 -30.921875 L 16.207031 -30.890625 L 13.613281 -12.027344 L 13.167969 -12.027344 L 10.574219 -30.890625 L 10.800781 -30.921875 L 10.800781 -30.695312 L 1.367188 -30.695312 L 1.367188 -30.921875 L 1.59375 -30.921875 Z M 1.59375 0 "/></g></g></g></g></g></svg>